<svg width="16" height="16" viewBox="0 0 16 16" fill="none" xmlns="http://www.w3.org/2000/svg">
<path fill-rule="evenodd" clip-rule="evenodd" d="M13.3656 4.23441C13.5156 4.38443 13.5998 4.58788 13.5998 4.80001C13.5998 5.01214 13.5156 5.21559 13.3656 5.36561L6.96561 11.7656C6.81558 11.9156 6.61214 11.9998 6.40001 11.9998C6.18787 11.9998 5.98443 11.9156 5.83441 11.7656L2.63441 8.56561C2.48868 8.41473 2.40804 8.21265 2.40987 8.00289C2.41169 7.79313 2.49582 7.59248 2.64415 7.44416C2.79248 7.29583 2.99313 7.2117 3.20288 7.20987C3.41264 7.20805 3.61472 7.28869 3.76561 7.43441L6.40001 10.0688L12.2344 4.23441C12.3844 4.08444 12.5879 4.00018 12.8 4.00018C13.0121 4.00018 13.2156 4.08444 13.3656 4.23441Z" fill="#F8FAFC"/>
</svg>
